#!OML:ASF H:\Punching\Project 1\Capture day 1\Session 1\female.ASF
:FULLY-SPECIFIED
:DEGREES
3956
root -1.62112 15.8636 -4.62817 371.998 2.13317 -1.37596
lowerback -5.03757 -0.296673 -0.123369
upperback -6.15527 -0.365269 1.00335
thorax -3.51728 -0.153112 1.09667
lowerneck -12.826 4.26796 10.8287
upperneck 37.4959 5.31687 -5.25149
head 15.9318 3.10765 -3.27293
rclavicle -1.07685e-014 -4.37326e-015
rhumerus -39.0565 -15.7917 -64.8743
rradius 24.7632
rwrist 7.30477
rhand -15.5099 -9.44592
rfingers 7.12502
rthumb 10.6729 -39.1548
lclavicle -1.07685e-014 -4.37326e-015
lhumerus -36.5897 3.82896 67.4123
lradius 33.7305
lwrist -17.7731
lhand -9.18053 14.0557
lfingers 7.12502
lthumb 16.7727 43.3513
rfemur -31.4006 9.34207 16.8758
rtibia 39.7368
rfoot -21.0981 -5.99121
rtoes -10.6524
lfemur -13.7418 -11.0514 -21.1748
ltibia 18.0283
lfoot -15.819 9.16174
ltoes 9.97968
3957
root -1.59773 15.8577 -4.64736 372.036 1.42033 -1.40857
lowerback -5.13053 -0.300042 -0.148212
upperback -6.18629 -0.37175 0.958277
thorax -3.49773 -0.156975 1.06362
lowerneck -12.8519 4.247 10.7846
upperneck 37.5329 5.26907 -5.21041
head 15.9481 3.08286 -3.25752
rclavicle -1.86361e-017 -1.76918e-014
rhumerus -39.4237 -16.1485 -64.5864
rradius 24.6167
rwrist 7.58449
rhand -15.4405 -9.54353
rfingers 7.12502
rthumb 10.7399 -39.249
lclavicle -1.86361e-017 -1.76918e-014
lhumerus -36.6666 4.01824 67.1236
lradius 33.7202
lwrist -17.8207
lhand -9.21886 13.9331
lfingers 7.12502
lthumb 16.7358 43.2317
rfemur -31.1441 8.9901 17.3974
rtibia 40.0546
rfoot -21.6415 -6.06021
rtoes -11.0549
lfemur -13.9168 -10.8086 -21.2983
ltibia 18.3421
lfoot -16.044 9.46932
ltoes 10.2602
3958
root -1.57482 15.851 -4.66538 372.062 0.71365 -1.44191
lowerback -5.21781 -0.294771 -0.148902
upperback -6.2208 -0.367439 0.903099
thorax -3.48541 -0.156608 1.0069
lowerneck -12.8777 4.2325 10.7575
upperneck 37.5837 5.23087 -5.17889
head 15.9738 3.06378 -3.24801
rclavicle 9.36462e-016 -1.01877e-015
rhumerus -39.8092 -16.5255 -64.3023
rradius 24.4533
rwrist 7.8356
rhand -15.4399 -9.61533
rfingers 7.12502
rthumb 10.7405 -39.3208
lclavicle 9.36462e-016 -1.01877e-015
lhumerus -36.7488 4.17839 66.8674
lradius 33.6975
lwrist -17.8938
lhand -9.22902 13.8443
lfingers 7.12502
lthumb 16.726 43.1437
rfemur -30.8505 8.67041 17.8922
rtibia 40.3313
rfoot -22.2302 -5.99482
rtoes -11.5921
lfemur -14.0841 -10.5745 -21.4202
ltibia 18.6694
lfoot -16.2848 9.77425
ltoes 10.5611
3959
root -1.55274 15.8432 -4.68242 372.085 0.0154045 -1.47576
lowerback -5.30416 -0.287022 -0.1372
upperback -6.2563 -0.360144 0.847084
thorax -3.47479 -0.15527 0.942455
lowerneck -12.906 4.22903 10.7417
upperneck 37.641 5.21116 -5.15923
head 16.0067 3.05275 -3.24258
rclavicle 9.61388e-015 -1.83503e-014
rhumerus -40.1912 -16.8857 -64.0415
rradius 24.2421
rwrist 7.96384
rhand -15.6722 -9.39217
rfingers 7.12502
rthumb 10.5164 -39.1091
lclavicle 9.61388e-015 -1.83503e-014
lhumerus -36.8428 4.32662 66.6488
lradius 33.6754
lwrist -17.9777
lhand -9.21468 13.8011
lfingers 7.12502
lthumb 16.7398 43.0994
rfemur -30.5203 8.39047 18.3587
rtibia 40.5596
rfoot -22.849 -5.82993
rtoes -12.3158
lfemur -14.2517 -10.3479 -21.5376
ltibia 19.0066
lfoot -16.5354 10.0748
ltoes 10.8647
3960
root -1.53148 15.8353 -4.6985 372.112 -0.673015 -1.5074
lowerback -5.39887 -0.273892 -0.11406
upperback -6.29472 -0.346103 0.78605
thorax -3.46277 -0.151139 0.866567
lowerneck -12.9315 4.23244 10.7408
upperneck 37.6999 5.20224 -5.14961
head 16.0422 3.04728 -3.24235
rclavicle -4.84305e-015 4.09993e-015
rhumerus -40.581 -17.2484 -63.7898
rradius 23.9887
rwrist 8.01494
rhand -16.0598 -8.88402
rfingers 7.12502
rthumb 10.1425 -38.6196
lclavicle -4.84305e-015 4.09993e-015
lhumerus -36.9396 4.45455 66.4672
lradius 33.6434
lwrist -18.0742
lhand -9.19609 13.7199
lfingers 7.12502
lthumb 16.7577 43.0167
rfemur -30.1679 8.16919 18.7803
rtibia 40.7332
rfoot -23.4753 -5.55168
rtoes -13.0975
lfemur -14.4246 -10.1213 -21.6522
ltibia 19.3457
lfoot -16.789 10.3598
ltoes 11.1712
3961
root -1.51127 15.8274 -4.71362 372.147 -1.35251 -1.538
lowerback -5.50448 -0.259311 -0.0862281
upperback -6.33798 -0.330257 0.72703
thorax -3.44977 -0.146262 0.790171
lowerneck -12.9574 4.24314 10.7471
upperneck 37.7653 5.2074 -5.15151
head 16.0836 3.04745 -3.24614
rclavicle -1.80304e-015 -2.6339e-015
rhumerus -40.968 -17.6141 -63.5367
rradius 23.6891
rwrist 8.0388
rhand -16.5621 -8.0745
rfingers 7.12502
rthumb 9.65788 -37.8331
lclavicle -1.80304e-015 -2.6339e-015
lhumerus -37.0471 4.58396 66.3237
lradius 33.6104
lwrist -18.1762
lhand -9.16757 13.6626
lfingers 7.12502
lthumb 16.7851 42.957
rfemur -29.7988 8.03001 19.1523
rtibia 40.8451
rfoot -24.0883 -5.17653
rtoes -13.9245
lfemur -14.6076 -9.89167 -21.76
ltibia 19.6824
lfoot -17.0447 10.6236
ltoes 11.4828
3962
root -1.49207 15.8198 -4.72776 372.195 -2.02441 -1.56534
lowerback -5.62583 -0.239324 -0.0532396
upperback -6.38663 -0.307467 0.665901
thorax -3.43375 -0.138185 0.708871
lowerneck -12.9775 4.25896 10.7647
upperneck 37.8302 5.2222 -5.16393
head 16.1255 3.05212 -3.25492
rclavicle -1.03834e-014 3.77691e-015
rhumerus -41.3615 -18.0018 -63.2667
rradius 23.3687
rwrist 8.10395
rhand -17.0517 -7.10947
rfingers 7.12502
rthumb 9.18542 -36.8894
lclavicle -1.03834e-014 3.77691e-015
lhumerus -37.1588 4.70534 66.2208
lradius 33.5716
lwrist -18.2775
lhand -9.13485 13.6171
lfingers 7.12502
lthumb 16.8166 42.9088
rfemur -29.418 7.984 19.4669
rtibia 40.8901
rfoot -24.6738 -4.70978
rtoes -14.7507
lfemur -14.7969 -9.66172 -21.8635
ltibia 20.0058
lfoot -17.3045 10.8636
ltoes 11.8103
3963
root -1.47399 15.8123 -4.74093 372.254 -2.68335 -1.59355
lowerback -5.76076 -0.219284 -0.0172521
upperback -6.43832 -0.284692 0.609788
thorax -3.41331 -0.130153 0.631077
lowerneck -12.9954 4.28231 10.7903
upperneck 37.8918 5.25154 -5.18893
head 16.1678 3.06244 -3.26803
rclavicle -8.01351e-016 4.77083e-015
rhumerus -41.7487 -18.4021 -62.9779
rradius 23.0497
rwrist 8.28191
rhand -17.4444 -6.18002
rfingers 7.12502
rthumb 8.80653 -35.9763
lclavicle -8.01351e-016 4.77083e-015
lhumerus -37.2815 4.84086 66.1532
lradius 33.5304
lwrist -18.3802
lhand -9.10257 13.5927
lfingers 7.12502
lthumb 16.8477 42.8818
rfemur -29.0239 8.03352 19.7306
rtibia 40.8631
rfoot -25.2284 -4.16951
rtoes -15.5499
lfemur -14.9917 -9.43345 -21.9563
ltibia 20.3164
lfoot -17.5744 11.0757
ltoes 12.1418
3964
root -1.45696 15.805 -4.75312 372.323 -3.32996 -1.61768
lowerback -5.90985 -0.199406 0.0173071
upperback -6.49191 -0.262147 0.557121
thorax -3.38697 -0.122134 0.557647
lowerneck -13.0062 4.31415 10.8287
upperneck 37.9461 5.29788 -5.23142
head 16.2079 3.07943 -3.28797
rclavicle -1.3008e-014 -7.95139e-015
rhumerus -42.1252 -18.8136 -62.6758
rradius 22.7558
rwrist 8.59597
rhand -17.6847 -5.45748
rfingers 7.12502
rthumb 8.57465 -35.2634
lclavicle -1.3008e-014 -7.95139e-015
lhumerus -37.4105 4.99376 66.1206
lradius 33.4808
lwrist -18.479
lhand -9.07334 13.5973
lfingers 7.12502
lthumb 16.8758 42.8841
rfemur -28.6162 8.16582 19.9428
rtibia 40.7627
rfoot -25.752 -3.5768
rtoes -16.3454
lfemur -15.1882 -9.19929 -22.0462
ltibia 20.6139
lfoot -17.8609 11.2532
ltoes 12.4648
3965
root -1.44102 15.7977 -4.76447 372.398 -3.9629 -1.63964
lowerback -6.07048 -0.181953 0.0486026
upperback -6.54456 -0.242714 0.511799
thorax -3.35315 -0.115403 0.493554
lowerneck -13.0068 4.35557 10.8737
upperneck 37.9851 5.36357 -5.28812
head 16.2409 3.1035 -3.31157
rclavicle 5.42931e-015 2.38542e-015
rhumerus -42.4809 -19.2196 -62.371
rradius 22.4963
rwrist 9.04004
rhand -17.7731 -4.99398
rfingers 7.12502
rthumb 8.48934 -34.8033
lclavicle 5.42931e-015 2.38542e-015
lhumerus -37.5538 5.16936 66.1238
lradius 33.4303
lwrist -18.5753
lhand -9.05409 13.6184
lfingers 7.12502
lthumb 16.8944 42.9035
rfemur -28.1947 8.37186 20.1111
rtibia 40.5882
rfoot -26.243 -2.95378
rtoes -17.1047
lfemur -15.3844 -8.95966 -22.1316
ltibia 20.9001
lfoot -18.1665 11.4018
ltoes 12.7465
3966
root -1.42597 15.7903 -4.77501 372.477 -4.58395 -1.65477
lowerback -6.2431 -0.164696 0.0786934
upperback -6.59484 -0.223621 0.467762
thorax -3.31021 -0.108793 0.431466
lowerneck -12.9953 4.40299 10.9323
upperneck 38.0067 5.44413 -5.3666
head 16.2651 3.13275 -3.3442
rclavicle 2.45996e-015 -4.77083e-015
rhumerus -42.8181 -19.6129 -62.0787
rradius 22.2738
rwrist 9.57386
rhand -17.7294 -4.783
rfingers 7.12502
rthumb 8.53147 -34.5906
lclavicle 2.45996e-015 -4.77083e-015
lhumerus -37.6989 5.35629 66.1637
lradius 33.3732
lwrist -18.6642
lhand -9.03946 13.6427
lfingers 7.12502
lthumb 16.9085 42.9267
rfemur -27.7626 8.63468 20.2362
rtibia 40.3424
rfoot -26.6948 -2.32324
rtoes -17.8149
lfemur -15.5772 -8.7109 -22.2208
ltibia 21.1751
lfoot -18.4893 11.5275
ltoes 12.9651
